<svg width="39" height="38" viewBox="0 0 39 38" fill="none" xmlns="http://www.w3.org/2000/svg">
<path d="M10.8333 38V29.3019H28.1667V38H10.8333ZM0 27.671V17.7225C0 17.2513 0.0902778 16.7983 0.270833 16.3634C0.451389 15.9285 0.722222 15.566 1.08333 15.2761L17.3333 0.815451C17.6222 0.525513 17.9566 0.316757 18.3365 0.189184C18.7149 0.0630613 19.1028 0 19.5 0C19.8972 0 20.2858 0.0630613 20.6657 0.189184C21.0441 0.316757 21.3778 0.525513 21.6667 0.815451L26 4.67525L0 27.671ZM3.25 38C2.34722 38 1.58022 37.6825 0.949 37.0476C0.316333 36.414 0 35.6443 0 34.7382V30.6066L8.66667 22.887V38H3.25ZM30.3333 38V20.1688L21.0708 11.9056L27.625 6.0887L37.9167 15.2761C38.2778 15.6023 38.5486 15.9734 38.7292 16.3895C38.9097 16.807 39 17.2513 39 17.7225V34.7382C39 35.6443 38.6837 36.414 38.051 37.0476C37.4198 37.6825 36.6528 38 35.75 38H30.3333Z" fill="white"/>
</svg>
